HIERARCHY
ROOT ui
{
	 OFFSET 0 0 0
	 CHANNELS 3 XPosition YPosition Z Position
	 EndSite
	 {
	 OFFSET 0 -1 0
	 }
}
ROOT li
{
	 OFFSET 0 0 0
	 CHANNELS 3 XPosition YPosition Z Position
	 EndSite
	 {
	 OFFSET 0 -1 0
	 }
}
ROOT ul
{
	 OFFSET 0 0 0
	 CHANNELS 3 XPosition YPosition Z Position
	 EndSite
	 {
	 OFFSET 0 -1 0
	 }
}
ROOT ll
{
	 OFFSET 0 0 0
	 CHANNELS 3 XPosition YPosition Z Position
	 EndSite
	 {
	 OFFSET 0 -1 0
	 }
}
ROOT tt
{
	 OFFSET 0 0 0
	 CHANNELS 3 XPosition YPosition Z Position
	 EndSite
	 {
	 OFFSET 0 -1 0
	 }
}
ROOT tb
{
	 OFFSET 0 0 0
	 CHANNELS 3 XPosition YPosition Z Position
	 EndSite
	 {
	 OFFSET 0 -1 0
	 }
}
ROOT td
{
	 OFFSET 0 0 0
	 CHANNELS 3 XPosition YPosition Z Position
	 EndSite
	 {
	 OFFSET 0 -1 0
	 }
}
ROOT v
{
	 OFFSET 0 0 0
	 CHANNELS 3 XPosition YPosition Z Position
	 EndSite
	 {
	 OFFSET 0 -1 0
	 }
}
ROOT bn
{
	 OFFSET 0 0 0
	 CHANNELS 3 XPosition YPosition Z Position
	 EndSite
	 {
	 OFFSET 0 -1 0
	 }
}
MOTION
Frames: 29
Frame Time: 0.002
-6.467040181159973E-4	0.0031879689693450927	0		0.6508392944335938	-3.0028056640625	0		-0.7997019653320312	0.2750696716308594	0		-0.104307861328125	-3.411650146484375	0		1.7764715576171874	-1.82237158203125	0		3.2418154296875	-1.0010155029296874	0		4.38276806640625	-0.40587295532226564	0		5.95439697265625	0.4339085998535156	0		-0.16250076293945312	5.94724267578125	0		
-0.023567020416259767	-0.012909950256347657	0		0.6460362548828125	-3.01914404296875	0		-0.80445751953125	0.2706724548339844	0		-0.07290630340576172	-3.415552490234375	0		1.77685791015625	-1.822740966796875	0		3.2134384765625	-0.9828997802734375	0		4.3622041015625	-0.3988290710449219	0		5.9376953125	0.43395645141601563	0		-0.16242274475097657	5.94679638671875	0		
-5.863000079989433E-5	0.002330080986022949	0		0.6484605102539063	-3.01756591796875	0		-0.7891513671875	0.273000732421875	0		-0.09935982513427734	-3.406575927734375	0		1.7792490234375	-1.8201177978515626	0		3.232632080078125	-0.9914688110351563	0		4.3495107421875	-0.39788113403320313	0		5.9510693359375	0.4415830078125	0		-0.17935459899902345	5.9486220703125	0		
0.004220128059387207	0.0048773508071899415	0		0.6518751220703125	-3.01397802734375	0		-0.7898093872070312	0.28058941650390623	0		-0.06500653076171875	-3.4084736328125	0		1.75791259765625	-1.796118896484375	0		3.21146826171875	-0.9534132080078125	0		4.347982421875	-0.38307254028320314	0		5.95128662109375	0.44142794799804685	0		-0.14724363708496094	5.95575	0		
3.739759922027588E-4	0.00157014000415802	0		0.6471065673828125	-3.020244140625	0		-0.7996072998046875	0.28133782958984377	0		-0.09763880157470703	-3.406358642578125	0		1.7561387939453126	-1.7993848876953125	0		3.174605712890625	-0.9601067504882812	0		4.33922607421875	-0.381132080078125	0		5.946349609375	0.4333753662109375	0		-0.14825628662109375	5.95739208984375	0		
-0.025461164474487305	0.0016135569810867309	0		0.6266712036132812	-3.001249755859375	0		-0.8053827514648437	0.2860556945800781	0		-0.07928218078613282	-3.40296337890625	0		1.756373779296875	-1.7996507568359374	0		3.170997314453125	-0.9472581176757813	0		4.3144208984375	-0.37992779541015625	0		5.9384951171875	0.4333960571289063	0		-0.031172229766845704	5.9673359375	0		
-0.0023920400142669676	-0.0030286400318145753	0		0.6377900390625	-3.01068994140625	0		-0.8052642822265625	0.2857171630859375	0		-0.10892385864257813	-3.39683544921875	0		1.7565765380859375	-1.7998857421875	0		3.189959228515625	-0.961711669921875	0		4.3086982421875	-0.37097274780273437	0		5.938607421875	0.43333016967773436	0		-0.14844612121582032	5.95673681640625	0		
0.004812807083129883	0.0035951790809631346	0		0.6498952026367187	-3.019112060546875	0		-0.8001143188476563	0.2893385925292969	0		-0.09377462005615235	-3.403330810546875	0		1.7587947998046876	-1.797119140625	0		3.159540771484375	-0.931410888671875	0		4.30399169921875	-0.35900408935546874	0		5.94281005859375	0.4412328186035156	0		-0.14857843017578126	5.95645751953125	0		
0.004897051811218261	0.0033557419776916505	0		0.6324290771484375	-2.996068359375	0		-0.8000408325195313	0.2890688171386719	0		-0.1132115478515625	-3.379286376953125	0		1.756135986328125	-1.784250244140625	0		3.168601318359375	-0.93566162109375	0		4.298220703125	-0.3499953918457031	0		5.9428779296875	0.4412171630859375	0		-0.18378738403320313	5.951720703125	0		
0.004968974113464355	0.0031510820388793944	0		0.6555011596679687	-3.00358349609375	0		-0.7999788208007812	0.28883627319335936	0		-0.11606556701660156	-3.382451416015625	0		1.7542265625	-1.787364990234375	0		3.165894287109375	-0.922714599609375	0		4.2822197265625	-0.3558190307617187	0		5.9429345703125	0.44121820068359374	0		-0.16499592590332032	5.9462353515625	0		
-0.0020659589767456055	-0.003916640043258667	0		0.6276760864257812	-3.00232861328125	0		-0.799922119140625	0.28864202880859374	0		-0.1158963623046875	-3.38262451171875	0		1.7454200439453125	-1.7823514404296874	0		3.137990966796875	-0.9223828125	0		4.2774267578125	-0.34678628540039064	0		5.93887158203125	0.4332891540527344	0		-0.1670834045410156	5.9480888671875	0		
0.001055778980255127	-9.506300091743469E-5	0		0.65377197265625	-3.00582177734375	0		-0.7998652954101563	0.28848666381835936	0		-0.11270172119140626	-3.379805908203125	0		1.7096639404296874	-1.7729227294921874	0		3.119282958984375	-0.908163818359375	0		4.27038525390625	-0.3547086181640625	0		5.93892431640625	0.4333079833984375	0		-0.2002704315185547	5.9414267578125	0		
0.005166316032409668	0.0027474770545959475	0		0.6517286987304688	-3.0178779296875	0		-0.78576171875	0.29116876220703125	0		-0.09562412261962891	-3.384152099609375	0		1.753806640625	-1.770621337890625	0		3.160120361328125	-0.9257882080078125	0		4.2615478515625	-0.34859170532226563	0		5.94895361328125	0.4311862487792969	0		-0.14911363220214843	5.9555869140625	0		
0.008284656524658204	0.0056396470069885254	0		0.6710050048828125	-3.007207275390625	0		-0.7865752563476562	0.2991063232421875	0		-0.135235595703125	-3.365644287109375	0		1.68733251953125	-1.740698974609375	0		3.13468701171875	-0.8924354248046875	0		4.27487158203125	-0.3317821350097656	0		5.94828173828125	0.44922198486328124	0		-0.1510968780517578	5.957548828125	0		
0.005328279018402099	0.00265328311920166	0		0.6312368774414062	-2.998656982421875	0		-0.7596091918945312	0.29068215942382813	0		-0.11606420135498047	-3.361948974609375	0		1.742270263671875	-1.7525037841796876	0		3.1167255859375	-0.8961787109375	0		4.271875	-0.33773098754882813	0		5.9483642578125	0.44924398803710935	0		-0.20128724670410156	5.94223828125	0		
0.0013847299814224244	-2.8566598892211916E-4	0		0.6562692260742188	-3.004010986328125	0		-0.7995498046875	0.28825881958007815	0		-0.13298341369628905	-3.363701416015625	0		1.699622802734375	-1.7348797607421875	0		3.10994287109375	-0.8880676879882813	0		4.2660908203125	-0.32963137817382815	0		5.9392333984375	0.4333934631347656	0		-0.1671205291748047	5.94775146484375	0		
0.0014970749616622925	-2.514109909534454E-4	0		0.630416748046875	-3.00060546875	0		-0.790336669921875	0.295165771484375	0		-0.09888655853271484	-3.36415576171875	0		1.69972900390625	-1.7348514404296875	0		3.116936279296875	-0.8961443481445313	0		4.25421728515625	-0.3284398498535156	0		5.9434619140625	0.4413482360839844	0		-0.16698699951171875	5.94778662109375	0		
0.0016223750114440919	-1.8840500712394715E-4	0		0.6335709228515625	-2.996592041015625	0		-0.7802095947265625	0.29509237670898436	0		-0.15658560180664063	-3.349258544921875	0		1.68495458984375	-1.7265894775390624	0		3.11057177734375	-0.8600137939453125	0		4.27040966796875	-0.32364779663085935	0		5.95257568359375	0.4402256774902344	0		-0.15066323852539062	5.95761962890625	0		
0.008845563888549804	0.005799540996551514	0		0.6346920166015625	-2.99452685546875	0		-0.7860094604492187	0.299279541015625	0		-0.0983748779296875	-3.341003173828125	0		1.6953387451171875	-1.7076715087890626	0		3.116422119140625	-0.8790556030273438	0		4.25167431640625	-0.31434988403320313	0		5.94885009765625	0.4492822265625	0		-0.1504361114501953	5.95771142578125	0		
0.0019079209566116332	1.4108999632298947E-5	0		0.63375048828125	-2.996411865234375	0		-0.7858552856445312	0.29940869140625	0		-0.15912973022460938	-3.32900927734375	0		1.688568115234375	-1.69949267578125	0		3.138823974609375	-0.8603251342773437	0		4.260728515625	-0.3204523620605469	0		5.943892578125	0.4413473815917969	0		-0.15115240478515626	5.958841796875	0		
0.002063823938369751	1.477169990539551E-4	0		0.659784423828125	-2.999669677734375	0		-0.7856918334960937	0.2995622253417969	0		-0.1029627914428711	-3.322681640625	0		1.7276336669921875	-1.7029649658203125	0		3.107990234375	-0.8578232421875	0		4.2608759765625	-0.32042657470703123	0		5.94917431640625	0.44925750732421876	0		-0.20008619689941406	5.942689453125	0		
-8.336359858512879E-4	-0.003657846927642822	0		0.633901123046875	-2.99616259765625	0		-0.785522705078125	0.299736328125	0		-0.15967874145507813	-3.3067041015625	0		1.683935791015625	-1.689230224609375	0		3.12028271484375	-0.8469403686523438	0		4.2592294921875	-0.306375732421875	0		5.95321728515625	0.4401734008789063	0		-0.18360537719726563	5.95261328125	0		
0.0122379732131958	-0.009681501388549806	0		0.6629716796875	-2.995440673828125	0		-0.7704265747070312	0.2947100219726563	0		-0.14945700073242188	-3.2946806640625	0		1.693212158203125	-1.6772545166015624	0		3.120269287109375	-0.8568801879882812	0		4.2652626953125	-0.3144413146972656	0		5.95363916015625	0.4571351318359375	0		-0.1812736053466797	5.9507548828125	0		
-0.016356510162353517	0.007913870811462402	0		0.6401218872070312	-2.987955322265625	0		-0.7711292724609375	0.30392745971679686	0		-0.16196958923339844	-3.263313720703125	0		1.727404541015625	-1.67063623046875	0		3.1278291015625	-0.8269236450195312	0		4.2577421875	-0.2913076477050781	0		5.961810546875	0.4569767150878906	0		-0.14780221557617187	5.9574560546875	0		
0.002685415983200073	8.23203980922699E-4	0		0.6879733276367187	-3.00049365234375	0		-0.7449746704101563	0.30376275634765626	0		-0.16091943359375	-3.26113720703125	0		1.7116778564453126	-1.6572850341796874	0		3.099785888671875	-0.8374483642578125	0		4.26677392578125	-0.2984157104492188	0		5.957857421875	0.4489932556152344	0		-0.030251628875732423	5.96893896484375	0		
0.002817173957824707	0.001015781044960022	0		0.6620350952148437	-2.99694775390625	0		-0.779827392578125	0.3044963684082031	0		-0.15481272888183595	-3.25402685546875	0		1.7048482666015625	-1.6500572509765625	0		3.12804296875	-0.8267869262695312	0		4.27580517578125	-0.3045198974609375	0		5.95000732421875	0.4490713806152344	0		-0.19729420471191406	5.94257861328125	0		
-0.004170907974243164	-0.005683042049407959	0		0.6879855346679687	-3.000156494140625	0		-0.774760986328125	0.30065164184570314	0		-0.1487234649658203	-3.24691162109375	0		1.7110291748046875	-1.6410146484375	0		3.12812451171875	-0.826710693359375	0		4.27999462890625	-0.2985476379394531	0		5.95400634765625	0.43998013305664063	0		-0.16286495971679688	5.94828466796875	0		
0.007066667079925537	0.004355010986328125	0		0.6370855102539063	-2.991233154296875	0		-0.7606149291992188	0.3036759033203125	0		-0.13756610107421874	-3.233868408203125	0		1.71410205078125	-1.6379239501953125	0		3.1435654296875	-0.8008533325195313	0		4.29205908203125	-0.2996874084472656	0		5.958482421875	0.4648909912109375	0		-0.14541438293457032	5.95724072265625	0		
0.007132605075836181	0.0045561127662658695	0		0.6582295532226563	-2.978366455078125	0		-0.7663455810546875	0.3169925537109375	0		-0.14135466003417968	-3.215604736328125	0		1.7064615478515626	-1.6136710205078124	0		3.128470458984375	-0.809546630859375	0		4.3041123046875	-0.2998223876953125	0		5.95832958984375	0.44887274169921876	0		-0.14709759521484375	5.95947705078125	0		
